<?xml version="1.0" encoding="UTF-8"?>
<svg viewBox="0 0 64 64" xmlns="http://www.w3.org/2000/svg">
 <defs>
  <filter id="d" x="-.16437" y="-.23633" width="1.3287" height="1.4726">
   <feGaussianBlur stdDeviation="3.6665"/>
  </filter>
  <linearGradient id="c" x1="35.884" x2="46.012" y1="36.423" y2="50.436" gradientTransform="matrix(1.2759 0 0 1.195 -118.53 -103.4)" gradientUnits="userSpaceOnUse">
   <stop stop-color="#ff0" offset="0"/>
   <stop stop-color="#b98823" offset="1"/>
  </linearGradient>
  <linearGradient id="b" x1="35.884" x2="46.012" y1="36.423" y2="50.436" gradientTransform="matrix(.94981 0 0 1.0284 -12.333 -27.326)" gradientUnits="userSpaceOnUse">
   <stop stop-color="#ff0" offset="0"/>
   <stop stop-color="#e9c516" offset=".5"/>
   <stop stop-color="#d3d32c" offset="1"/>
  </linearGradient>
  <linearGradient id="a" x1="7.5" x2="51.773" gradientUnits="userSpaceOnUse">
   <stop stop-color="#5ab023" offset="0"/>
   <stop stop-color="#5ab023" stop-opacity="0" offset="1"/>
  </linearGradient>
 </defs>
 <path d="m10.813 43.857 18.106 11.761 35.429-25.473-18.106-11.761-35.429 25.473z" fill="#172a0b" filter="url(#d)"/>
 <g stroke="#0d3203">
  <g transform="matrix(.66449 -.47776 .79545 .51671 -.6011 38.925)" stroke="#0d3203">
   <path d="m5.4688 12.375v20.719h48.531v-20.719h-48.531z" fill="#468a1b" stroke-linejoin="round"/>
   <path d="m8 14.909h43.273v15.545h-43.273z" fill="#5ab023" stroke-linejoin="round"/>
   <path transform="translate(33.364 -11.636)" d="m15.727 34.773c0 1.682-2.2182 3.0455-4.9546 3.0455s-4.9546-1.3635-4.9546-3.0455 2.2182-3.0455 4.9546-3.0455 4.9546 1.3635 4.9546 3.0455z" fill="#3e711d"/>
   <path transform="translate(.63636,-.09091)" d="m13.182 29.818c0 1.1548-1.5874 2.0909-3.5454 2.0909s-3.5454-0.93613-3.5454-2.0909 1.5874-2.0909 3.5454-2.0909 3.5454 0.93613 3.5454 2.0909z" fill="#5ab023" stroke-linejoin="round"/>
   <path transform="translate(38.909 -13.545)" d="m13.182 29.818c0 1.1548-1.5874 2.0909-3.5454 2.0909s-3.5454-0.93613-3.5454-2.0909 1.5874-2.0909 3.5454-2.0909 3.5454 0.93613 3.5454 2.0909z" fill="#5ab023" stroke-linejoin="round"/>
   <path transform="translate(.59091,-.18182)" d="m35.818 22.773c0 3.4392-3.0322 6.2273-6.7727 6.2273s-6.7727-2.788-6.7727-6.2273 3.0322-6.2273 6.7727-6.2273 6.7727 2.788 6.7727 6.2273z" fill="#7ed04a" stroke-linejoin="round"/>
   <path transform="translate(4.8636 -11.409)" d="m15.727 34.773c0 1.682-2.2182 3.0455-4.9546 3.0455s-4.9546-1.3635-4.9546-3.0455 2.2182-3.0455 4.9546-3.0455 4.9546 1.3635 4.9546 3.0455z" fill="#3e711d"/>
   <path transform="translate(.18182 -13.545)" d="m13.182 29.818c0 1.1548-1.5874 2.0909-3.5454 2.0909s-3.5454-0.93613-3.5454-2.0909 1.5874-2.0909 3.5454-2.0909 3.5454 0.93613 3.5454 2.0909z" fill="#5ab023" stroke-linejoin="round"/>
   <path transform="translate(38.727 .27273)" d="m13.182 29.818c0 1.1548-1.5874 2.0909-3.5454 2.0909s-3.5454-0.93613-3.5454-2.0909 1.5874-2.0909 3.5454-2.0909 3.5454 0.93613 3.5454 2.0909z" fill="#5ab023" stroke-linejoin="round"/>
  </g>
  <g transform="matrix(.66449 -.47776 .79545 .51671 -.68081 37.634)" stroke="#0d3203">
   <path d="m5.4688 12.375v20.719h48.531v-20.719h-48.531z" fill="#468a1b" stroke-linejoin="round"/>
   <path d="m8 14.909h43.273v15.545h-43.273z" fill="#5ab023" stroke-linejoin="round"/>
   <path transform="translate(33.364 -11.636)" d="m15.727 34.773c0 1.682-2.2182 3.0455-4.9546 3.0455s-4.9546-1.3635-4.9546-3.0455 2.2182-3.0455 4.9546-3.0455 4.9546 1.3635 4.9546 3.0455z" fill="#3e711d"/>
   <path transform="translate(.63636,-.09091)" d="m13.182 29.818c0 1.1548-1.5874 2.0909-3.5454 2.0909s-3.5454-0.93613-3.5454-2.0909 1.5874-2.0909 3.5454-2.0909 3.5454 0.93613 3.5454 2.0909z" fill="#5ab023" stroke-linejoin="round"/>
   <path transform="translate(38.909 -13.545)" d="m13.182 29.818c0 1.1548-1.5874 2.0909-3.5454 2.0909s-3.5454-0.93613-3.5454-2.0909 1.5874-2.0909 3.5454-2.0909 3.5454 0.93613 3.5454 2.0909z" fill="#5ab023" stroke-linejoin="round"/>
   <path transform="translate(.59091,-.18182)" d="m35.818 22.773c0 3.4392-3.0322 6.2273-6.7727 6.2273s-6.7727-2.788-6.7727-6.2273 3.0322-6.2273 6.7727-6.2273 6.7727 2.788 6.7727 6.2273z" fill="#7ed04a" stroke-linejoin="round"/>
   <path transform="translate(4.8636 -11.409)" d="m15.727 34.773c0 1.682-2.2182 3.0455-4.9546 3.0455s-4.9546-1.3635-4.9546-3.0455 2.2182-3.0455 4.9546-3.0455 4.9546 1.3635 4.9546 3.0455z" fill="#3e711d"/>
   <path transform="translate(.18182 -13.545)" d="m13.182 29.818c0 1.1548-1.5874 2.0909-3.5454 2.0909s-3.5454-0.93613-3.5454-2.0909 1.5874-2.0909 3.5454-2.0909 3.5454 0.93613 3.5454 2.0909z" fill="#5ab023" stroke-linejoin="round"/>
   <path transform="translate(38.727 .27273)" d="m13.182 29.818c0 1.1548-1.5874 2.0909-3.5454 2.0909s-3.5454-0.93613-3.5454-2.0909 1.5874-2.0909 3.5454-2.0909 3.5454 0.93613 3.5454 2.0909z" fill="#5ab023" stroke-linejoin="round"/>
  </g>
  <g transform="matrix(.66449 -.47776 .79545 .51671 -.18331 36.522)" stroke="#0d3203">
   <path d="m5.4688 12.375v20.719h48.531v-20.719h-48.531z" fill="#468a1b" stroke-linejoin="round"/>
   <path d="m8 14.909h43.273v15.545h-43.273z" fill="#5ab023" stroke-linejoin="round"/>
   <path transform="translate(33.364 -11.636)" d="m15.727 34.773c0 1.682-2.2182 3.0455-4.9546 3.0455s-4.9546-1.3635-4.9546-3.0455 2.2182-3.0455 4.9546-3.0455 4.9546 1.3635 4.9546 3.0455z" fill="#3e711d"/>
   <path transform="translate(.63636,-.09091)" d="m13.182 29.818c0 1.1548-1.5874 2.0909-3.5454 2.0909s-3.5454-0.93613-3.5454-2.0909 1.5874-2.0909 3.5454-2.0909 3.5454 0.93613 3.5454 2.0909z" fill="#5ab023" stroke-linejoin="round"/>
   <path transform="translate(38.909 -13.545)" d="m13.182 29.818c0 1.1548-1.5874 2.0909-3.5454 2.0909s-3.5454-0.93613-3.5454-2.0909 1.5874-2.0909 3.5454-2.0909 3.5454 0.93613 3.5454 2.0909z" fill="#5ab023" stroke-linejoin="round"/>
   <path transform="translate(.59091,-.18182)" d="m35.818 22.773c0 3.4392-3.0322 6.2273-6.7727 6.2273s-6.7727-2.788-6.7727-6.2273 3.0322-6.2273 6.7727-6.2273 6.7727 2.788 6.7727 6.2273z" fill="#7ed04a" stroke-linejoin="round"/>
   <path transform="translate(4.8636 -11.409)" d="m15.727 34.773c0 1.682-2.2182 3.0455-4.9546 3.0455s-4.9546-1.3635-4.9546-3.0455 2.2182-3.0455 4.9546-3.0455 4.9546 1.3635 4.9546 3.0455z" fill="#3e711d"/>
   <path transform="translate(.18182 -13.545)" d="m13.182 29.818c0 1.1548-1.5874 2.0909-3.5454 2.0909s-3.5454-0.93613-3.5454-2.0909 1.5874-2.0909 3.5454-2.0909 3.5454 0.93613 3.5454 2.0909z" fill="#5ab023" stroke-linejoin="round"/>
   <path transform="translate(38.727 .27273)" d="m13.182 29.818c0 1.1548-1.5874 2.0909-3.5454 2.0909s-3.5454-0.93613-3.5454-2.0909 1.5874-2.0909 3.5454-2.0909 3.5454 0.93613 3.5454 2.0909z" fill="#5ab023" stroke-linejoin="round"/>
  </g>
  <g transform="matrix(.66449 -.47776 .79545 .51671 -.53037 34.902)" stroke="#0d3203">
   <path d="m5.4688 12.375v20.719h48.531v-20.719h-48.531z" fill="#468a1b" stroke-linejoin="round"/>
   <path d="m8 14.909h43.273v15.545h-43.273z" fill="#5ab023" stroke-linejoin="round"/>
   <path transform="translate(33.364 -11.636)" d="m15.727 34.773c0 1.682-2.2182 3.0455-4.9546 3.0455s-4.9546-1.3635-4.9546-3.0455 2.2182-3.0455 4.9546-3.0455 4.9546 1.3635 4.9546 3.0455z" fill="#3e711d"/>
   <path transform="translate(.63636,-.09091)" d="m13.182 29.818c0 1.1548-1.5874 2.0909-3.5454 2.0909s-3.5454-0.93613-3.5454-2.0909 1.5874-2.0909 3.5454-2.0909 3.5454 0.93613 3.5454 2.0909z" fill="#5ab023" stroke-linejoin="round"/>
   <path transform="translate(38.909 -13.545)" d="m13.182 29.818c0 1.1548-1.5874 2.0909-3.5454 2.0909s-3.5454-0.93613-3.5454-2.0909 1.5874-2.0909 3.5454-2.0909 3.5454 0.93613 3.5454 2.0909z" fill="#5ab023" stroke-linejoin="round"/>
   <path transform="translate(.59091,-.18182)" d="m35.818 22.773c0 3.4392-3.0322 6.2273-6.7727 6.2273s-6.7727-2.788-6.7727-6.2273 3.0322-6.2273 6.7727-6.2273 6.7727 2.788 6.7727 6.2273z" fill="#7ed04a" stroke-linejoin="round"/>
   <path transform="translate(4.8636 -11.409)" d="m15.727 34.773c0 1.682-2.2182 3.0455-4.9546 3.0455s-4.9546-1.3635-4.9546-3.0455 2.2182-3.0455 4.9546-3.0455 4.9546 1.3635 4.9546 3.0455z" fill="#3e711d"/>
   <path transform="translate(.18182 -13.545)" d="m13.182 29.818c0 1.1548-1.5874 2.0909-3.5454 2.0909s-3.5454-0.93613-3.5454-2.0909 1.5874-2.0909 3.5454-2.0909 3.5454 0.93613 3.5454 2.0909z" fill="#5ab023" stroke-linejoin="round"/>
   <path transform="translate(38.727 .27273)" d="m13.182 29.818c0 1.1548-1.5874 2.0909-3.5454 2.0909s-3.5454-0.93613-3.5454-2.0909 1.5874-2.0909 3.5454-2.0909 3.5454 0.93613 3.5454 2.0909z" fill="#5ab023" stroke-linejoin="round"/>
  </g>
  <g transform="matrix(.66449 -.47776 .79545 .51671 -.49971 33.439)" stroke="#0d3203">
   <path d="m5.4688 12.375v20.719h48.531v-20.719h-48.531z" fill="#468a1b" stroke-linejoin="round"/>
   <path d="m8 14.909h43.273v15.545h-43.273z" fill="#5ab023" stroke-linejoin="round"/>
   <path transform="translate(33.364 -11.636)" d="m15.727 34.773c0 1.682-2.2182 3.0455-4.9546 3.0455s-4.9546-1.3635-4.9546-3.0455 2.2182-3.0455 4.9546-3.0455 4.9546 1.3635 4.9546 3.0455z" fill="#3e711d"/>
   <path transform="translate(.63636,-.09091)" d="m13.182 29.818c0 1.1548-1.5874 2.0909-3.5454 2.0909s-3.5454-0.93613-3.5454-2.0909 1.5874-2.0909 3.5454-2.0909 3.5454 0.93613 3.5454 2.0909z" fill="#5ab023" stroke-linejoin="round"/>
   <path transform="translate(38.909 -13.545)" d="m13.182 29.818c0 1.1548-1.5874 2.0909-3.5454 2.0909s-3.5454-0.93613-3.5454-2.0909 1.5874-2.0909 3.5454-2.0909 3.5454 0.93613 3.5454 2.0909z" fill="#5ab023" stroke-linejoin="round"/>
   <path transform="translate(.59091,-.18182)" d="m35.818 22.773c0 3.4392-3.0322 6.2273-6.7727 6.2273s-6.7727-2.788-6.7727-6.2273 3.0322-6.2273 6.7727-6.2273 6.7727 2.788 6.7727 6.2273z" fill="#7ed04a" stroke-linejoin="round"/>
   <path transform="translate(4.8636 -11.409)" d="m15.727 34.773c0 1.682-2.2182 3.0455-4.9546 3.0455s-4.9546-1.3635-4.9546-3.0455 2.2182-3.0455 4.9546-3.0455 4.9546 1.3635 4.9546 3.0455z" fill="#3e711d"/>
   <path transform="translate(.18182 -13.545)" d="m13.182 29.818c0 1.1548-1.5874 2.0909-3.5454 2.0909s-3.5454-0.93613-3.5454-2.0909 1.5874-2.0909 3.5454-2.0909 3.5454 0.93613 3.5454 2.0909z" fill="#5ab023" stroke-linejoin="round"/>
   <path transform="translate(38.727 .27273)" d="m13.182 29.818c0 1.1548-1.5874 2.0909-3.5454 2.0909s-3.5454-0.93613-3.5454-2.0909 1.5874-2.0909 3.5454-2.0909 3.5454 0.93613 3.5454 2.0909z" fill="#5ab023" stroke-linejoin="round"/>
  </g>
  <g transform="matrix(.66449 -.47776 .79545 .51671 -.33288 32.335)">
   <path d="m5.4688 12.375v20.719h48.531v-20.719h-48.531z" fill="#468a1b" stroke="#0d3203" stroke-linejoin="round"/>
   <path d="m8 14.909h43.273v15.545h-43.273z" fill="url(#a)" stroke="#1f7607" stroke-linejoin="round"/>
   <path transform="translate(33.364 -11.636)" d="m15.727 34.773c0 1.682-2.2182 3.0455-4.9546 3.0455s-4.9546-1.3635-4.9546-3.0455 2.2182-3.0455 4.9546-3.0455 4.9546 1.3635 4.9546 3.0455z" fill="#3e711d" stroke="#0d3203"/>
   <path transform="translate(.63636,-.09091)" d="m13.182 29.818c0 1.1548-1.5874 2.0909-3.5454 2.0909s-3.5454-0.93613-3.5454-2.0909 1.5874-2.0909 3.5454-2.0909 3.5454 0.93613 3.5454 2.0909z" fill="#5ab023" stroke="#0d3203" stroke-linejoin="round"/>
   <path transform="translate(38.909 -13.545)" d="m13.182 29.818c0 1.1548-1.5874 2.0909-3.5454 2.0909s-3.5454-0.93613-3.5454-2.0909 1.5874-2.0909 3.5454-2.0909 3.5454 0.93613 3.5454 2.0909z" fill="#5ab023" stroke="#0d3203" stroke-linejoin="round"/>
   <path transform="translate(.59091,-.18182)" d="m35.818 22.773c0 3.4392-3.0322 6.2273-6.7727 6.2273s-6.7727-2.788-6.7727-6.2273 3.0322-6.2273 6.7727-6.2273 6.7727 2.788 6.7727 6.2273z" fill="#7ed04a" stroke="#0d3203" stroke-linejoin="round"/>
   <path transform="translate(4.8636 -11.409)" d="m15.727 34.773c0 1.682-2.2182 3.0455-4.9546 3.0455s-4.9546-1.3635-4.9546-3.0455 2.2182-3.0455 4.9546-3.0455 4.9546 1.3635 4.9546 3.0455z" fill="#3e711d" stroke="#0d3203"/>
   <path transform="translate(.18182 -13.545)" d="m13.182 29.818c0 1.1548-1.5874 2.0909-3.5454 2.0909s-3.5454-0.93613-3.5454-2.0909 1.5874-2.0909 3.5454-2.0909 3.5454 0.93613 3.5454 2.0909z" fill="#5ab023" stroke="#0d3203" stroke-linejoin="round"/>
   <path transform="translate(38.727 .27273)" d="m13.182 29.818c0 1.1548-1.5874 2.0909-3.5454 2.0909s-3.5454-0.93613-3.5454-2.0909 1.5874-2.0909 3.5454-2.0909 3.5454 0.93613 3.5454 2.0909z" fill="#5ab023" stroke="#0d3203" stroke-linejoin="round"/>
  </g>
  <path transform="matrix(-.72767 .51291 -.00817 -.97554 2.4727 29.863)" d="m-68.144-43.619h11.398v6.9875h-11.398z" fill="url(#c)" stroke="#856208" stroke-linejoin="round" stroke-width="1.2348"/>
  <path transform="matrix(.7218 -.51985 .94092 .61566 2.4727 29.863)" d="m20.795 9.8134h11.856v18.052h-11.856z" fill="url(#b)" stroke="#836008" stroke-linejoin="round" stroke-width=".98834"/>
 </g>
 <path transform="matrix(.98925 -.14624 .14624 .98925 -6.5882 2.0038)" d="m-0.92617 45.014 18.106 11.761 35.429-25.473-18.106-11.761-35.429 25.473z" fill="#172a0b" filter="url(#d)"/>
 <g stroke="#0d3203">
  <g transform="matrix(.45837 -.61264 .85991 .42885 -10.279 42.193)" stroke="#0d3203">
   <path d="m5.4688 12.375v20.719h48.531v-20.719h-48.531z" fill="#468a1b" stroke-linejoin="round"/>
   <path d="m8 14.909h43.273v15.545h-43.273z" fill="#5ab023" stroke-linejoin="round"/>
   <path transform="translate(33.364 -11.636)" d="m15.727 34.773c0 1.682-2.2182 3.0455-4.9546 3.0455s-4.9546-1.3635-4.9546-3.0455 2.2182-3.0455 4.9546-3.0455 4.9546 1.3635 4.9546 3.0455z" fill="#3e711d"/>
   <path transform="translate(.63636,-.09091)" d="m13.182 29.818c0 1.1548-1.5874 2.0909-3.5454 2.0909s-3.5454-0.93613-3.5454-2.0909 1.5874-2.0909 3.5454-2.0909 3.5454 0.93613 3.5454 2.0909z" fill="#5ab023" stroke-linejoin="round"/>
   <path transform="translate(38.909 -13.545)" d="m13.182 29.818c0 1.1548-1.5874 2.0909-3.5454 2.0909s-3.5454-0.93613-3.5454-2.0909 1.5874-2.0909 3.5454-2.0909 3.5454 0.93613 3.5454 2.0909z" fill="#5ab023" stroke-linejoin="round"/>
   <path transform="translate(.59091,-.18182)" d="m35.818 22.773c0 3.4392-3.0322 6.2273-6.7727 6.2273s-6.7727-2.788-6.7727-6.2273 3.0322-6.2273 6.7727-6.2273 6.7727 2.788 6.7727 6.2273z" fill="#7ed04a" stroke-linejoin="round"/>
   <path transform="translate(4.8636 -11.409)" d="m15.727 34.773c0 1.682-2.2182 3.0455-4.9546 3.0455s-4.9546-1.3635-4.9546-3.0455 2.2182-3.0455 4.9546-3.0455 4.9546 1.3635 4.9546 3.0455z" fill="#3e711d"/>
   <path transform="translate(.18182 -13.545)" d="m13.182 29.818c0 1.1548-1.5874 2.0909-3.5454 2.0909s-3.5454-0.93613-3.5454-2.0909 1.5874-2.0909 3.5454-2.0909 3.5454 0.93613 3.5454 2.0909z" fill="#5ab023" stroke-linejoin="round"/>
   <path transform="translate(38.727 .27273)" d="m13.182 29.818c0 1.1548-1.5874 2.0909-3.5454 2.0909s-3.5454-0.93613-3.5454-2.0909 1.5874-2.0909 3.5454-2.0909 3.5454 0.93613 3.5454 2.0909z" fill="#5ab023" stroke-linejoin="round"/>
  </g>
  <g transform="matrix(.45837 -.61264 .85991 .42885 -10.719 40.827)" stroke="#0d3203">
   <path d="m5.4688 12.375v20.719h48.531v-20.719h-48.531z" fill="#468a1b" stroke-linejoin="round"/>
   <path d="m8 14.909h43.273v15.545h-43.273z" fill="#5ab023" stroke-linejoin="round"/>
   <path transform="translate(33.364 -11.636)" d="m15.727 34.773c0 1.682-2.2182 3.0455-4.9546 3.0455s-4.9546-1.3635-4.9546-3.0455 2.2182-3.0455 4.9546-3.0455 4.9546 1.3635 4.9546 3.0455z" fill="#3e711d"/>
   <path transform="translate(.63636,-.09091)" d="m13.182 29.818c0 1.1548-1.5874 2.0909-3.5454 2.0909s-3.5454-0.93613-3.5454-2.0909 1.5874-2.0909 3.5454-2.0909 3.5454 0.93613 3.5454 2.0909z" fill="#5ab023" stroke-linejoin="round"/>
   <path transform="translate(38.909 -13.545)" d="m13.182 29.818c0 1.1548-1.5874 2.0909-3.5454 2.0909s-3.5454-0.93613-3.5454-2.0909 1.5874-2.0909 3.5454-2.0909 3.5454 0.93613 3.5454 2.0909z" fill="#5ab023" stroke-linejoin="round"/>
   <path transform="translate(.59091,-.18182)" d="m35.818 22.773c0 3.4392-3.0322 6.2273-6.7727 6.2273s-6.7727-2.788-6.7727-6.2273 3.0322-6.2273 6.7727-6.2273 6.7727 2.788 6.7727 6.2273z" fill="#7ed04a" stroke-linejoin="round"/>
   <path transform="translate(4.8636 -11.409)" d="m15.727 34.773c0 1.682-2.2182 3.0455-4.9546 3.0455s-4.9546-1.3635-4.9546-3.0455 2.2182-3.0455 4.9546-3.0455 4.9546 1.3635 4.9546 3.0455z" fill="#3e711d"/>
   <path transform="translate(.18182 -13.545)" d="m13.182 29.818c0 1.1548-1.5874 2.0909-3.5454 2.0909s-3.5454-0.93613-3.5454-2.0909 1.5874-2.0909 3.5454-2.0909 3.5454 0.93613 3.5454 2.0909z" fill="#5ab023" stroke-linejoin="round"/>
   <path transform="translate(38.727 .27273)" d="m13.182 29.818c0 1.1548-1.5874 2.0909-3.5454 2.0909s-3.5454-0.93613-3.5454-2.0909 1.5874-2.0909 3.5454-2.0909 3.5454 0.93613 3.5454 2.0909z" fill="#5ab023" stroke-linejoin="round"/>
  </g>
  <g transform="matrix(.45837 -.61264 .85991 .42885 -10.591 39.563)" stroke="#0d3203">
   <path d="m5.4688 12.375v20.719h48.531v-20.719h-48.531z" fill="#468a1b" stroke-linejoin="round"/>
   <path d="m8 14.909h43.273v15.545h-43.273z" fill="#5ab023" stroke-linejoin="round"/>
   <path transform="translate(33.364 -11.636)" d="m15.727 34.773c0 1.682-2.2182 3.0455-4.9546 3.0455s-4.9546-1.3635-4.9546-3.0455 2.2182-3.0455 4.9546-3.0455 4.9546 1.3635 4.9546 3.0455z" fill="#3e711d"/>
   <path transform="translate(.63636,-.09091)" d="m13.182 29.818c0 1.1548-1.5874 2.0909-3.5454 2.0909s-3.5454-0.93613-3.5454-2.0909 1.5874-2.0909 3.5454-2.0909 3.5454 0.93613 3.5454 2.0909z" fill="#5ab023" stroke-linejoin="round"/>
   <path transform="translate(38.909 -13.545)" d="m13.182 29.818c0 1.1548-1.5874 2.0909-3.5454 2.0909s-3.5454-0.93613-3.5454-2.0909 1.5874-2.0909 3.5454-2.0909 3.5454 0.93613 3.5454 2.0909z" fill="#5ab023" stroke-linejoin="round"/>
   <path transform="translate(.59091,-.18182)" d="m35.818 22.773c0 3.4392-3.0322 6.2273-6.7727 6.2273s-6.7727-2.788-6.7727-6.2273 3.0322-6.2273 6.7727-6.2273 6.7727 2.788 6.7727 6.2273z" fill="#7ed04a" stroke-linejoin="round"/>
   <path transform="translate(4.8636 -11.409)" d="m15.727 34.773c0 1.682-2.2182 3.0455-4.9546 3.0455s-4.9546-1.3635-4.9546-3.0455 2.2182-3.0455 4.9546-3.0455 4.9546 1.3635 4.9546 3.0455z" fill="#3e711d"/>
   <path transform="translate(.18182 -13.545)" d="m13.182 29.818c0 1.1548-1.5874 2.0909-3.5454 2.0909s-3.5454-0.93613-3.5454-2.0909 1.5874-2.0909 3.5454-2.0909 3.5454 0.93613 3.5454 2.0909z" fill="#5ab023" stroke-linejoin="round"/>
   <path transform="translate(38.727 .27273)" d="m13.182 29.818c0 1.1548-1.5874 2.0909-3.5454 2.0909s-3.5454-0.93613-3.5454-2.0909 1.5874-2.0909 3.5454-2.0909 3.5454 0.93613 3.5454 2.0909z" fill="#5ab023" stroke-linejoin="round"/>
  </g>
  <g transform="matrix(.45837 -.61264 .85991 .42885 -11.365 37.886)" stroke="#0d3203">
   <path d="m5.4688 12.375v20.719h48.531v-20.719h-48.531z" fill="#468a1b" stroke-linejoin="round"/>
   <path d="m8 14.909h43.273v15.545h-43.273z" fill="#5ab023" stroke-linejoin="round"/>
   <path transform="translate(33.364 -11.636)" d="m15.727 34.773c0 1.682-2.2182 3.0455-4.9546 3.0455s-4.9546-1.3635-4.9546-3.0455 2.2182-3.0455 4.9546-3.0455 4.9546 1.3635 4.9546 3.0455z" fill="#3e711d"/>
   <path transform="translate(.63636,-.09091)" d="m13.182 29.818c0 1.1548-1.5874 2.0909-3.5454 2.0909s-3.5454-0.93613-3.5454-2.0909 1.5874-2.0909 3.5454-2.0909 3.5454 0.93613 3.5454 2.0909z" fill="#5ab023" stroke-linejoin="round"/>
   <path transform="translate(38.909 -13.545)" d="m13.182 29.818c0 1.1548-1.5874 2.0909-3.5454 2.0909s-3.5454-0.93613-3.5454-2.0909 1.5874-2.0909 3.5454-2.0909 3.5454 0.93613 3.5454 2.0909z" fill="#5ab023" stroke-linejoin="round"/>
   <path transform="translate(.59091,-.18182)" d="m35.818 22.773c0 3.4392-3.0322 6.2273-6.7727 6.2273s-6.7727-2.788-6.7727-6.2273 3.0322-6.2273 6.7727-6.2273 6.7727 2.788 6.7727 6.2273z" fill="#7ed04a" stroke-linejoin="round"/>
   <path transform="translate(4.8636 -11.409)" d="m15.727 34.773c0 1.682-2.2182 3.0455-4.9546 3.0455s-4.9546-1.3635-4.9546-3.0455 2.2182-3.0455 4.9546-3.0455 4.9546 1.3635 4.9546 3.0455z" fill="#3e711d"/>
   <path transform="translate(.18182 -13.545)" d="m13.182 29.818c0 1.1548-1.5874 2.0909-3.5454 2.0909s-3.5454-0.93613-3.5454-2.0909 1.5874-2.0909 3.5454-2.0909 3.5454 0.93613 3.5454 2.0909z" fill="#5ab023" stroke-linejoin="round"/>
   <path transform="translate(38.727 .27273)" d="m13.182 29.818c0 1.1548-1.5874 2.0909-3.5454 2.0909s-3.5454-0.93613-3.5454-2.0909 1.5874-2.0909 3.5454-2.0909 3.5454 0.93613 3.5454 2.0909z" fill="#5ab023" stroke-linejoin="round"/>
  </g>
  <g transform="matrix(.45837 -.61264 .85991 .42885 -11.756 36.32)" stroke="#0d3203">
   <path d="m5.4688 12.375v20.719h48.531v-20.719h-48.531z" fill="#468a1b" stroke-linejoin="round"/>
   <path d="m8 14.909h43.273v15.545h-43.273z" fill="#5ab023" stroke-linejoin="round"/>
   <path transform="translate(33.364 -11.636)" d="m15.727 34.773c0 1.682-2.2182 3.0455-4.9546 3.0455s-4.9546-1.3635-4.9546-3.0455 2.2182-3.0455 4.9546-3.0455 4.9546 1.3635 4.9546 3.0455z" fill="#3e711d"/>
   <path transform="translate(.63636,-.09091)" d="m13.182 29.818c0 1.1548-1.5874 2.0909-3.5454 2.0909s-3.5454-0.93613-3.5454-2.0909 1.5874-2.0909 3.5454-2.0909 3.5454 0.93613 3.5454 2.0909z" fill="#5ab023" stroke-linejoin="round"/>
   <path transform="translate(38.909 -13.545)" d="m13.182 29.818c0 1.1548-1.5874 2.0909-3.5454 2.0909s-3.5454-0.93613-3.5454-2.0909 1.5874-2.0909 3.5454-2.0909 3.5454 0.93613 3.5454 2.0909z" fill="#5ab023" stroke-linejoin="round"/>
   <path transform="translate(.59091,-.18182)" d="m35.818 22.773c0 3.4392-3.0322 6.2273-6.7727 6.2273s-6.7727-2.788-6.7727-6.2273 3.0322-6.2273 6.7727-6.2273 6.7727 2.788 6.7727 6.2273z" fill="#7ed04a" stroke-linejoin="round"/>
   <path transform="translate(4.8636 -11.409)" d="m15.727 34.773c0 1.682-2.2182 3.0455-4.9546 3.0455s-4.9546-1.3635-4.9546-3.0455 2.2182-3.0455 4.9546-3.0455 4.9546 1.3635 4.9546 3.0455z" fill="#3e711d"/>
   <path transform="translate(.18182 -13.545)" d="m13.182 29.818c0 1.1548-1.5874 2.0909-3.5454 2.0909s-3.5454-0.93613-3.5454-2.0909 1.5874-2.0909 3.5454-2.0909 3.5454 0.93613 3.5454 2.0909z" fill="#5ab023" stroke-linejoin="round"/>
   <path transform="translate(38.727 .27273)" d="m13.182 29.818c0 1.1548-1.5874 2.0909-3.5454 2.0909s-3.5454-0.93613-3.5454-2.0909 1.5874-2.0909 3.5454-2.0909 3.5454 0.93613 3.5454 2.0909z" fill="#5ab023" stroke-linejoin="round"/>
  </g>
  <g transform="matrix(.45837 -.61264 .85991 .42885 -11.922 35.116)">
   <path d="m5.4688 12.375v20.719h48.531v-20.719h-48.531z" fill="#468a1b" stroke="#0d3203" stroke-linejoin="round"/>
   <path d="m8 14.909h43.273v15.545h-43.273z" fill="url(#a)" stroke="#1f7607" stroke-linejoin="round"/>
   <path transform="translate(33.364 -11.636)" d="m15.727 34.773c0 1.682-2.2182 3.0455-4.9546 3.0455s-4.9546-1.3635-4.9546-3.0455 2.2182-3.0455 4.9546-3.0455 4.9546 1.3635 4.9546 3.0455z" fill="#3e711d" stroke="#0d3203"/>
   <path transform="translate(.63636,-.09091)" d="m13.182 29.818c0 1.1548-1.5874 2.0909-3.5454 2.0909s-3.5454-0.93613-3.5454-2.0909 1.5874-2.0909 3.5454-2.0909 3.5454 0.93613 3.5454 2.0909z" fill="#5ab023" stroke="#0d3203" stroke-linejoin="round"/>
   <path transform="translate(38.909 -13.545)" d="m13.182 29.818c0 1.1548-1.5874 2.0909-3.5454 2.0909s-3.5454-0.93613-3.5454-2.0909 1.5874-2.0909 3.5454-2.0909 3.5454 0.93613 3.5454 2.0909z" fill="#5ab023" stroke="#0d3203" stroke-linejoin="round"/>
   <path transform="translate(.59091,-.18182)" d="m35.818 22.773c0 3.4392-3.0322 6.2273-6.7727 6.2273s-6.7727-2.788-6.7727-6.2273 3.0322-6.2273 6.7727-6.2273 6.7727 2.788 6.7727 6.2273z" fill="#7ed04a" stroke="#0d3203" stroke-linejoin="round"/>
   <path transform="translate(4.8636 -11.409)" d="m15.727 34.773c0 1.682-2.2182 3.0455-4.9546 3.0455s-4.9546-1.3635-4.9546-3.0455 2.2182-3.0455 4.9546-3.0455 4.9546 1.3635 4.9546 3.0455z" fill="#3e711d" stroke="#0d3203"/>
   <path transform="translate(.18182 -13.545)" d="m13.182 29.818c0 1.1548-1.5874 2.0909-3.5454 2.0909s-3.5454-0.93613-3.5454-2.0909 1.5874-2.0909 3.5454-2.0909 3.5454 0.93613 3.5454 2.0909z" fill="#5ab023" stroke="#0d3203" stroke-linejoin="round"/>
   <path transform="translate(38.727 .27273)" d="m13.182 29.818c0 1.1548-1.5874 2.0909-3.5454 2.0909s-3.5454-0.93613-3.5454-2.0909 1.5874-2.0909 3.5454-2.0909 3.5454 0.93613 3.5454 2.0909z" fill="#5ab023" stroke="#0d3203" stroke-linejoin="round"/>
  </g>
  <path transform="matrix(-.50488 .65992 -.2862 -1.0402 -10.117 32.043)" d="m-68.144-43.619h11.398v6.9875h-11.398z" fill="url(#c)" stroke="#856208" stroke-linejoin="round" stroke-width="1.2348"/>
  <path transform="matrix(.49765 -.66642 1.0184 .51203 -10.117 32.043)" d="m20.795 9.8134h11.856v18.052h-11.856z" fill="url(#b)" stroke="#836008" stroke-linejoin="round" stroke-width=".98834"/>
 </g>
</svg>
